<svg width="40" height="24" viewBox="0 0 40 24" fill="none" xmlns="http://www.w3.org/2000/svg">
    <path d="M24.811 13.712C24.7309 15.0217 24.5519 15.9709 23.7195 17.5931C26.0334 20.0127 27.236 21.1261 29.6623 23.5359L29.7836 19.291C27.5716 17.2767 26.5399 16.021 24.811 13.712Z" fill="white"/>
    <path d="M29.782 5.46367V14.426C30.6902 14.4755 31.0874 14.4069 31.1162 13.6993V11.156H33.6631C34.0269 11.156 34.3908 10.9136 34.3908 10.5503V9.82361V9.21805C34.3908 8.85946 34.0269 8.61689 33.6631 8.6126H31.1162V6.06923C31.1162 5.70578 30.8736 5.46355 30.5097 5.46367H29.782Z" fill="white"/>
    <path d="M29.782 5.46367V14.426C28.8739 14.4755 28.4767 14.4069 28.4479 13.6993V11.156H25.901C25.5372 11.156 25.1733 10.9136 25.1733 10.5503V9.82361V9.21805C25.1733 8.85946 25.5372 8.61689 25.901 8.6126H28.4479V6.06923C28.4479 5.70578 28.6905 5.46355 29.0543 5.46367H29.782Z" fill="white"/>
    <path d="M18.9895 7.89159L17.5341 8.37672C17.5341 8.37672 14.7445 3.2828 9.16569 5.70843C4.33395 8.25484 4.5279 14.2002 7.34624 16.6239C8.04932 17.2285 9.89317 18.807 12.9252 18.5157C14.9888 18.2927 16.789 17.4784 18.0193 14.4408H11.1061V9.83211H23.477C24.7676 27.7841 2.61635 27.0542 0.190723 13.8344C-1.70087 3.52546 10.8635 -5.08568 20.8087 3.52542C19.7996 4.65438 19.4528 5.65991 18.9895 7.89159Z" fill="white"/>
    <path d="M20.3261 8.49774H23.4794C24.485 4.91162 25.9968 3.75194 29.7861 3.28259V0.12925C24.6922 0.12925 21.1751 3.28259 20.3261 8.49774Z" fill="white"/>
    <path d="M29.6637 0.12925V3.28259C33.1809 3.28259 35.8491 6.19337 36.1071 9.58928C36.1071 12.1362 33.7638 15.2616 29.785 19.2919L29.6637 23.5368C37.6683 16.2598 39.631 12.2917 39.245 8.7403C38.396 3.28259 34.515 0.371814 29.6637 0.12925Z" fill="white"/>
    <g clip-path="url(#clip0_196_548)">
        <path d="M36.9432 23.2869L36.6927 23.003C36.8215 22.9744 36.9026 22.8802 36.9026 22.749C36.9026 22.5927 36.7881 22.4877 36.6152 22.4877H36.2108V23.2869H36.4076V23.0125H36.4649L36.7058 23.2869H36.9432ZM36.4076 22.8479V22.6559H36.5937C36.6641 22.6559 36.7094 22.6941 36.7094 22.7513C36.7094 22.8098 36.6641 22.8479 36.5937 22.8479H36.4076Z" fill="white"/>
        <path fill-rule="evenodd" clip-rule="evenodd" d="M36.517 23.462C36.8068 23.462 37.0418 23.227 37.0418 22.9372C37.0418 22.6474 36.8068 22.4124 36.517 22.4124C36.2271 22.4124 35.9922 22.6474 35.9922 22.9372C35.9922 23.227 36.2271 23.462 36.517 23.462ZM36.517 23.5336C36.8463 23.5336 37.1133 23.2666 37.1133 22.9372C37.1133 22.6079 36.8463 22.3409 36.517 22.3409C36.1876 22.3409 35.9206 22.6079 35.9206 22.9372C35.9206 23.2666 36.1876 23.5336 36.517 23.5336Z" fill="white"/>
    </g>
    <defs>
        <clipPath id="clip0_196_548">
            <rect width="1.21282" height="1.27347" fill="white" transform="translate(35.8993 22.3169)"/>
        </clipPath>
    </defs>
</svg>
