<svg width="4000" height="2000" viewBox="0 0 4000 2000" fill="none" xmlns="http://www.w3.org/2000/svg">
<path d="M726.434 1565.66V620.439H963.475V1565.66H726.434Z" fill="#006EFF"/>
<path d="M481.751 620.44C386.471 620.437 293.327 648.156 214.105 700.088C134.882 752.017 73.135 825.83 36.6721 912.187C0.209079 998.547 -9.33141 1093.57 9.25639 1185.25C27.8442 1276.93 73.7241 1361.15 141.097 1427.24C208.471 1493.34 294.31 1538.35 387.76 1556.59C481.21 1574.82 578.072 1565.46 666.1 1529.69C686.975 1521.21 707.13 1511.33 726.44 1500.16C726.44 1415.56 726.44 1399.41 726.44 1333.11C726.44 1227.6 726.443 1139.69 726.44 1046.22C726.437 920.874 726.44 791.478 726.44 700.088C726.44 669.598 726.44 713.651 726.44 685.949C652.928 643.422 568.547 620.44 481.751 620.44ZM481.751 1333.11C433.353 1333.11 386.043 1319.03 345.799 1292.65C305.556 1266.28 274.192 1228.79 255.67 1184.92C237.148 1141.05 232.301 1092.78 241.742 1046.22C251.183 999.648 274.487 956.874 308.708 923.296C342.931 889.722 386.531 866.857 434.001 857.594C481.467 848.329 530.666 853.084 575.38 871.254C620.094 889.424 658.313 920.193 685.202 959.671C712.089 999.149 726.44 1045.56 726.44 1093.04C726.44 1156.71 700.661 1217.77 654.773 1262.79C608.885 1307.81 546.648 1333.11 481.751 1333.11Z" fill="#006EFF"/>
<path d="M722.047 1565.49V619.807H964.857V1565.49H722.047Z" fill="#006EFF"/>
<path d="M1733.68 1565.67V34.2441H1970.72V1565.67H1733.68Z" fill="#006EFF"/>
<path d="M1174.42 1565.67V34.2441H1411.46V1565.67H1174.42Z" fill="#006EFF"/>
<path d="M2906.69 620.439L2653.03 1249.55L2401.57 620.439H2143.94L2525.37 1565.96L2350.37 2000L2598.92 1999.16L3159.68 620.448L2906.69 620.439Z" fill="#006EFF"/>
<path d="M3741.43 599.193L3574.72 190.414H3833.3L4000 599.193H3741.43Z" fill="#006EFF"/>
<path d="M3206.62 599.199L3450.97 0H3709.54L3465.19 599.199H3206.62Z" fill="#006EFF"/>
<path d="M3241.12 897.348V776.935H3255.26V821.386H3256.45C3257.49 819.817 3258.93 817.82 3260.78 815.388C3262.66 812.917 3265.32 810.725 3268.79 808.804C3272.32 806.844 3277.06 805.862 3283.08 805.862C3290.83 805.862 3297.65 807.763 3303.55 811.567C3309.48 815.369 3314.11 820.759 3317.4 827.734C3320.73 834.713 3322.38 842.943 3322.38 852.429C3322.38 861.993 3320.73 870.285 3317.4 877.3C3314.11 884.276 3309.51 889.686 3303.64 893.527C3297.74 897.331 3290.97 899.232 3283.31 899.232C3277.38 899.232 3272.67 898.27 3269.11 896.35C3265.56 894.39 3262.81 892.177 3260.9 889.706C3258.96 887.198 3257.49 885.122 3256.45 883.473H3254.77V897.348H3241.12ZM3255.03 852.194C3255.03 859.014 3256.04 865.031 3258.07 870.245C3260.12 875.419 3263.1 879.476 3267 882.415C3270.93 885.317 3275.71 886.767 3281.4 886.767C3287.3 886.767 3292.25 885.238 3296.21 882.18C3300.2 879.085 3303.18 874.929 3305.17 869.715C3307.22 864.463 3308.24 858.622 3308.24 852.194C3308.24 845.845 3307.25 840.12 3305.23 835.025C3303.29 829.89 3300.31 825.834 3296.32 822.855C3292.36 819.837 3287.39 818.327 3281.4 818.327C3275.65 818.327 3270.79 819.757 3266.89 822.62C3262.98 825.442 3260 829.4 3258.01 834.498C3256.01 839.553 3255.03 845.454 3255.03 852.194ZM3349.82 931.218C3347.45 931.218 3345.31 931.019 3343.43 930.628C3341.55 930.276 3340.25 929.924 3339.52 929.57L3343.11 917.34C3346.55 918.202 3349.59 918.517 3352.22 918.282C3354.88 918.046 3357.19 916.889 3359.25 914.812C3361.33 912.775 3363.21 909.462 3364.94 904.875L3367.57 897.819L3333.54 807.039H3348.86L3374.28 879.005H3375.24L3400.65 807.039H3416.01L3376.91 910.52C3375.15 915.184 3372.98 919.045 3370.38 922.103C3367.81 925.201 3364.77 927.493 3361.33 928.982C3357.94 930.472 3354.1 931.218 3349.82 931.218Z" fill="#006EFF"/>
<path d="M3846.66 848.874C3846.34 860.406 3843.31 871.708 3837.79 881.892C3857.22 902.497 3867.25 911.96 3887.64 932.497L3888.68 896.324C3872.92 882.091 3858.84 866.176 3846.66 848.874Z" fill="#006EFF"/>
<path d="M3888.21 778.518V854.824C3895.87 855.227 3899.22 854.824 3899.43 848.583V826.972H3920.91C3922.42 827.065 3923.92 826.58 3925.08 825.616C3926.2 824.648 3926.93 823.284 3927.07 821.806V810.464C3926.93 808.997 3926.2 807.647 3925.05 806.696C3923.89 805.746 3922.42 805.267 3920.91 805.363H3899.37V783.684C3899.43 783.009 3899.34 782.328 3899.11 781.687C3898.88 781.048 3898.5 780.464 3898.04 779.976C3897.55 779.485 3896.97 779.102 3896.33 778.85C3895.7 778.6 3895 778.487 3894.31 778.518H3888.21Z" fill="#006EFF"/>
<path d="M3888.38 778.515V854.824C3880.81 855.227 3877.45 854.824 3877.22 848.58V826.971H3855.82C3854.32 827.045 3852.85 826.552 3851.72 825.587C3850.59 824.625 3849.87 823.269 3849.72 821.803V810.461C3849.87 809 3850.59 807.649 3851.72 806.699C3852.87 805.746 3854.32 805.267 3855.82 805.36H3877.22V783.681C3877.19 783.008 3877.28 782.333 3877.51 781.698C3877.74 781.062 3878.12 780.484 3878.61 779.996C3879.07 779.508 3879.65 779.125 3880.29 778.869C3880.92 778.614 3881.62 778.495 3882.31 778.515H3888.38Z" fill="#006EFF"/>
<path d="M3799.29 799.34L3787.11 803.502C3787.11 803.502 3763.72 760.146 3716.85 780.75C3676.36 802.427 3677.98 853.031 3701.61 873.635C3707.74 879.502 3715.08 883.981 3723.18 886.761C3731.25 889.544 3739.86 890.563 3748.39 889.743C3765.77 887.865 3780.81 880.951 3791.13 855.045H3733.13V815.851H3836.97C3847.78 968.602 3661.9 962.426 3641.6 849.944C3625.73 762.225 3731.16 688.872 3814.53 762.225C3806.11 771.825 3803.19 780.347 3799.29 799.34Z" fill="#006EFF"/>
<path d="M3809.08 804.474H3835.57C3842.39 770.917 3856.62 764.205 3888.43 760.111V733.266C3845.69 733.266 3816.2 760.111 3809.08 804.474Z" fill="#006EFF"/>
<path d="M3887.37 733.266V760.111C3916.87 760.111 3940.81 774.744 3941.42 813.805C3941.42 835.481 3921.78 862.125 3888.39 896.352C3879.91 903.064 3881.01 915.884 3887.37 932.528C3954.55 870.582 3971.03 836.823 3967.76 806.622C3960.91 760.111 3928.09 735.348 3887.37 733.266Z" fill="#006EFF"/>
<path d="M3552.95 735.088V919.048H3507.72V735.088H3552.95ZM3625.73 811.667V845.624H3540.08V811.531L3625.73 811.667ZM3633.05 735.088V769.315H3540.08V735.088H3633.05Z" fill="#006EFF"/>
<path d="M2852.52 1979.32L2831.52 1955.52C2842.32 1953.12 2849.12 1945.22 2849.12 1934.22C2849.12 1921.12 2839.52 1912.32 2825.02 1912.32H2791.12V1979.32H2807.62V1956.32H2812.42L2832.62 1979.32H2852.52ZM2807.62 1942.52V1926.42H2823.22C2829.12 1926.42 2832.92 1929.62 2832.92 1934.42C2832.92 1939.32 2829.12 1942.52 2823.22 1942.52H2807.62Z" fill="#006EFF"/>
<path fill-rule="evenodd" clip-rule="evenodd" d="M2816.65 1993.99C2840.95 1993.99 2860.65 1974.29 2860.65 1949.99C2860.65 1925.69 2840.95 1906 2816.65 1906C2792.35 1906 2772.65 1925.69 2772.65 1949.99C2772.65 1974.29 2792.35 1993.99 2816.65 1993.99ZM2816.65 1999.99C2844.26 1999.99 2866.65 1977.61 2866.65 1949.99C2866.65 1922.38 2844.26 1899.99 2816.65 1899.99C2789.04 1899.99 2766.65 1922.38 2766.65 1949.99C2766.65 1977.61 2789.04 1999.99 2816.65 1999.99Z" fill="#006EFF"/>
</svg>
